<?xml version="1.0" encoding="utf-8"?>
<!-- Generator: Adobe Illustrator 19.2.0, SVG Export Plug-In . SVG Version: 6.00 Build 0)  -->
<svg version="1.1" id="Layer_1" xmlns="http://www.w3.org/2000/svg" xmlns:xlink="http://www.w3.org/1999/xlink" x="0px" y="0px"
	 viewBox="0 0 451 442.8" style="enable-background:new 0 0 451 442.8;" xml:space="preserve">
<style type="text/css">
	.st0{fill:#B3B3B3;}
	.st1{fill:#666666;stroke:#000000;stroke-width:2;stroke-miterlimit:10;}
	.st2{stroke:#000000;stroke-width:2;stroke-miterlimit:10;}
	.st3{fill:#FFFFFF;}
	.st4{fill:#CCCCCC;}
	.st5{fill:#666666;}
	.st6{fill:#FFFFFF;stroke:#000000;stroke-width:2;stroke-miterlimit:10;}
	.st7{fill:none;stroke:#000000;stroke-width:2;stroke-miterlimit:10;}
	.st8{fill:url(#XMLID_1549_);}
	.st9{fill:url(#XMLID_1552_);}
	.st10{fill:url(#XMLID_1555_);}
	.st11{fill:url(#XMLID_1556_);}
	.st12{fill:#231F20;}
	.st13{fill:url(#XMLID_1559_);}
	.st14{fill:#E6E6E6;}
	.st15{fill:url(#XMLID_1560_);}
	.st16{fill:url(#);}
	.st17{fill:url(#XMLID_1561_);}
	.st18{fill:url(#XMLID_1562_);}
	.st19{fill:#333333;}
	.st20{fill:url(#XMLID_1563_);}
	.st21{fill:#4D4D4D;}
	.st22{fill:url(#XMLID_1564_);}
	.st23{fill:url(#XMLID_1565_);}
	.st24{fill:url(#XMLID_1566_);}
	.st25{fill:url(#XMLID_1567_);}
	.st26{fill:url(#XMLID_1573_);}
	.st27{fill:url(#XMLID_1574_);}
	.st28{fill:url(#XMLID_1576_);}
	.st29{fill:#DC0034;}
	.st30{fill:url(#XMLID_1577_);}
	.st31{fill:url(#XMLID_1578_);}
	.st32{fill:#222222;}
	.st33{fill:url(#XMLID_1582_);}
	.st34{fill:url(#XMLID_1583_);}
	.st35{fill:url(#XMLID_1584_);}
	.st36{fill:url(#XMLID_1585_);}
	.st37{opacity:0.22;}
	.st38{fill:url(#XMLID_1588_);}
	.st39{fill:url(#XMLID_1589_);}
	.st40{fill:url(#XMLID_1590_);}
	.st41{fill:url(#XMLID_1591_);}
	.st42{fill:url(#XMLID_1592_);}
	.st43{fill:url(#XMLID_1593_);}
	.st44{fill:none;stroke:#231F20;stroke-miterlimit:10;}
	.st45{fill:url(#XMLID_1594_);}
	.st46{fill:url(#XMLID_1598_);}
	.st47{fill:url(#XMLID_1599_);}
	.st48{fill:url(#XMLID_1600_);}
	.st49{fill:url(#XMLID_1601_);}
	.st50{fill:url(#XMLID_1602_);}
	.st51{fill:url(#XMLID_1603_);}
	.st52{fill:url(#XMLID_1660_);}
	.st53{fill:url(#XMLID_1661_);}
	.st54{fill:url(#XMLID_1662_);}
	.st55{fill:url(#XMLID_1663_);}
	.st56{fill:url(#XMLID_1664_);}
	.st57{opacity:0.49;}
	.st58{fill:#D80027;}
	.st59{fill:url(#XMLID_1665_);}
	.st60{fill:url(#XMLID_1666_);}
	.st61{fill:url(#XMLID_1669_);}
	.st62{fill:url(#XMLID_1670_);}
	.st63{fill:url(#XMLID_1671_);}
	.st64{fill:url(#XMLID_1672_);}
	.st65{fill:url(#XMLID_1673_);}
	.st66{fill:url(#XMLID_1674_);}
	.st67{fill:url(#XMLID_1675_);}
	.st68{fill:url(#XMLID_1676_);}
	.st69{fill:url(#XMLID_1681_);}
	.st70{fill:url(#XMLID_1682_);}
	.st71{fill:none;stroke:#000000;stroke-miterlimit:10;}
	.st72{fill:url(#XMLID_1683_);}
	.st73{fill:#808080;}
	.st74{fill:#009245;stroke:#FFFFFF;stroke-miterlimit:10;}
	.st75{fill:#603813;stroke:#FFFFFF;stroke-miterlimit:10;}
	.st76{fill:#D4145A;stroke:#FFFFFF;stroke-miterlimit:10;}
	.st77{fill:#0071BC;stroke:#FFFFFF;stroke-miterlimit:10;}
	.st78{fill:#009245;}
	.st79{opacity:0.8;}
	.st80{fill:#DC0034;stroke:#000000;stroke-width:2;stroke-miterlimit:10;}
	.st81{fill:none;}
	.st82{fill:url(#XMLID_1684_);}
	.st83{fill:url(#XMLID_1685_);}
	.st84{fill:none;stroke:#FFFFFF;stroke-width:2;stroke-miterlimit:10;}
	.st85{fill:none;stroke:#FFFFFF;stroke-miterlimit:10;}
	.st86{fill:url(#XMLID_1686_);}
	.st87{fill:url(#XMLID_1687_);}
	.st88{fill:url(#XMLID_1688_);}
	.st89{stroke:#000000;stroke-miterlimit:10;}
	.st90{fill:url(#XMLID_1689_);}
	.st91{fill:url(#XMLID_1690_);}
	.st92{fill:url(#XMLID_1691_);}
	.st93{fill:#FFFFFF;stroke:#000000;stroke-miterlimit:10;}
</style>
<path id="XMLID_260_" d="M108.1,10.4l-10.6,6c-1.1,0.5-2.3,1-3.4,1.6L16.7,62.5c-0.1,0.1-0.4,0.2-0.5,0.3L3,70.2v15.4v88.9v15.4
	l13.1,7.4c0.1,0.1,0.3,0.2,0.5,0.3l77.5,44.5c1.1,0.6,2.2,1.1,3.3,1.6l10.6,6l34.4-19.6c1.1-0.4,2.1-0.9,3.2-1.5l53.3-31l0-0.2h0
	l0,0.2c0.1,0,0.3,0,0.4,0l13.8-7.7v-2V70.2L108.1,10.4z M19.6,68.8l12.3-7.2C29.6,66.5,28,71.9,28,77.5v9.7l-12,7.1
	c-2.5,1.4-2,3.4-6,5.7V85.6C10,78.8,13.7,72.4,19.6,68.8z M132.9,225c-3.2,0-6.3-0.8-9.2-2.5l-7.5-4.3l38.2-22.1
	c6-3.5,9.6-9.8,9.6-16.8v-12.2l35.7,20.1c-1.4,1.7-3.1,3.2-5.1,4.3l-57.1,32.8C136,224.8,134.4,225,132.9,225z M50.5,51.2l35.4-20.3
	l6.9-3.7c3.7-2.1,8.2-3.3,12.2-3.7v42l-9.6-5.4c-3-1.7-6.4-2.6-9.8-2.6c-3.3,0-7.1,0.9-10.1,2.6L35,83.2v-5.7
	C35,66.6,41.1,56.6,50.5,51.2z M206,97.1c-4-1.8-4.8-3.3-7-4.5l-14-7.4v-7.7c0-5.6-0.8-11-3.1-16l13.3,7c6.1,3.5,10.9,10,10.9,17.1
	V97.1z M204.1,181.2l-39.5-22l2.5-1.8c11.6-6.7,18-19,18-32.3V93.3l10.5,5.3c5.7,3.3,10.5,9.3,10.5,15.9v60
	C206,176.8,204.8,179.1,204.1,181.2z M178,81.2l-33-19.4c-3.9-2.3-8-3.4-12.4-3.4c-4.4,0-8.8,1.1-12.8,3.4l-8.8,5V23.6
	c4,0.5,7.8,1.8,11.3,3.8l40.9,23.8c9.4,5.4,14.8,15.4,14.8,26.3V81.2z M147.7,100.9c3.5,2,9.3,5.7,9.3,9.6v39.1
	c0,3.9-5.8,7.6-9.3,9.6L118,176.4c-3,1.7-6.2,2.6-9.5,2.6c-3.3,0-6.6-0.9-9.6-2.6l-30.1-17.2c-3.5-2-5.9-5.7-5.9-9.6v-39.1
	c0-3.9,2.4-7.6,5.9-9.6l33.6-19.3c1.8-1,3.9-1.6,6-1.6c2,0,4,0.5,5.8,1.6L147.7,100.9z M164,151.2v-40.1c0-6.9-3.6-13.3-9.6-16.8
	l-38.3-22.1l7.6-4.3c2.8-1.6,6-2.5,9.2-2.5c3.2,0,5.8,0.8,8.6,2.5L178,89.2V125C178,135.8,174,145.7,164,151.2z M78.9,66.2
	c1.9-1.1,4.2-1.7,6.3-1.7c2.1,0,4.3,0.5,6.3,1.7l10.6,6.1L67.8,92.6c-7.9,4.5-11.8,12.9-11.8,22v38.7l-4.5-1.9
	C42.1,145.9,35,135.9,35,125V91.3L78.9,66.2z M47.1,157.4l3.4,1.8L14,178.9v-67.8c0-4.4,1.9-8.5,5.7-10.7l8.3-5.1V125
	C28,138.4,35.5,150.7,47.1,157.4z M79.3,224.3l-59.3-34.2c-1.8-1.1-2.4-2.5-3.5-4.3L56,165.1v10.8c0,9.1,3.9,17.4,11.8,22l34.8,20.3
	l-10.8,6.1c-1.9,1.1-4.2,1.6-6.3,1.6C83.4,225.9,81.2,225.4,79.3,224.3z M71.3,191.8c-5.7-3.3-8.3-9.3-8.3-15.9v-10.6l26.7,15.9
	c5.8,3.3,11.7,5,18.2,5c6.4,0,12.6-1.7,18.3-5l30.8-17.9v16.1c0,4.4-2.3,8.5-6.1,10.7l-41.3,24.1L71.3,191.8z M91.1,232.1
	c1.4-0.4,2.8-1,4-1.7l14.1-8.1l11,6.4c1.9,1.1,3.8,1.9,5.8,2.4l-8.8,5.1c-3,1.7-6.4,2.6-9.8,2.6c-2.4,0-4.8-0.5-7-1.3L91.1,232.1z"
	/>
<path id="XMLID_697_" class="st3" d="M346.3,10.4l-10.5,6c-1.1,0.5-2.2,1-3.3,1.6L255,62.5c-0.1,0.1-0.6,0.2-0.7,0.3L241,70.2v15.4
	v88.9v15.4l13.3,7.4c0.1,0.1,0.4,0.2,0.5,0.3l77.6,44.5c1.1,0.6,2.2,1.1,3.4,1.6l10.6,6l34.4-19.6c1.1-0.4,2.1-0.9,3.2-1.5l53.3-31
	l0-0.2h0l0,0.2c0.1,0,0.1,0,0.2,0l13.6-7.7v-2V70.2L346.3,10.4z M257.8,68.8l12.2-7.2c-2.3,4.9-4,10.3-4,15.8v9.7l-12,7.1
	c-2.5,1.4-2,3.4-6,5.7V85.6C248,78.8,251.9,72.4,257.8,68.8z M371.2,225c-3.2,0-6.3-0.8-9.2-2.5l-7.5-4.3l38.1-22.1
	c6-3.5,9.4-9.8,9.4-16.8v-12.2l35.9,20.1c-1.4,1.7-3,3.2-5,4.3l-57.1,32.8C374.3,224.8,372.8,225,371.2,225z M288.7,51.2l35.5-20.3
	l6.7-3.7c3.7-2.1,8.1-3.3,12.1-3.7v42l-9.5-5.4c-3-1.7-6.4-2.6-9.7-2.6c-3.3,0-7.2,0.9-10.2,2.6L273,83.2v-5.7
	C273,66.6,279.3,56.6,288.7,51.2z M444,97.1c-4-1.8-4.8-3.3-7-4.5l-14-7.4v-7.7c0-5.6-0.6-11-2.9-16l13.2,7
	c6.1,3.5,10.8,10,10.8,17.1V97.1z M442.2,181.2l-39.4-22l2.3-1.8c11.6-6.7,17.8-19,17.8-32.3V93.3l10.5,5.3
	c5.7,3.3,10.5,9.3,10.5,15.9v60C444,176.8,443,179.1,442.2,181.2z M416,81.2l-32.9-19.4c-3.9-2.3-7.9-3.4-12.3-3.4
	c-4.4,0-9,1.1-12.9,3.4l-9,5V23.6c4,0.5,8,1.8,11.5,3.8l40.8,23.8c9.4,5.4,14.7,15.4,14.7,26.3V81.2z M385.9,100.9
	c3.5,2,9.1,5.7,9.1,9.6v39.1c0,3.9-5.6,7.6-9.1,9.6l-29.6,17.2c-3,1.7-6.1,2.6-9.5,2.6c-3.3,0-6.6-0.9-9.5-2.6l-30.2-17.2
	c-3.5-2-6.1-5.7-6.1-9.6v-39.1c0-3.9,2.5-7.6,6.1-9.6l33.7-19.3c1.8-1,4-1.6,6-1.6c2,0,3.9,0.5,5.7,1.6L385.9,100.9z M402,151.2
	v-40.1c0-6.9-3.4-13.3-9.4-16.8l-38.2-22.1l7.6-4.3c2.8-1.6,6-2.5,9.2-2.5c3.2,0,5.6,0.8,8.4,2.5L416,89.2V125
	C416,135.8,412,145.7,402,151.2z M317.1,66.2c1.9-1.1,4.3-1.7,6.4-1.7c2.1,0,4.4,0.5,6.3,1.7l10.6,6.1l-34.5,20.3
	c-7.9,4.5-11.9,12.9-11.9,22v38.7l-4.5-1.9c-9.4-5.4-16.5-15.4-16.5-26.3V91.3L317.1,66.2z M285.2,157.4l3.3,1.8L252,178.9v-67.8
	c0-4.4,1.9-8.5,5.7-10.7l8.3-5.1V125C266,138.4,273.7,150.7,285.2,157.4z M317.7,224.3l-59.3-34.2c-1.8-1.1-2.6-2.5-3.6-4.3
	l39.3-20.7v10.8c0,9.1,4.1,17.4,12,22l34.9,20.3l-10.7,6.1c-1.9,1.1-4.1,1.6-6.3,1.6C321.8,225.9,319.6,225.4,317.7,224.3z
	 M309.5,191.8c-5.7-3.3-8.5-9.3-8.5-15.9v-10.6l26.9,15.9c5.8,3.3,11.8,5,18.3,5c6.4,0,12.4-1.7,18.2-5l30.7-17.9v16.1
	c0,4.4-2.1,8.5-5.9,10.7l-41.3,24.1L309.5,191.8z M329.4,232.1c1.4-0.4,2.8-1,4-1.7l14.1-8.1l11,6.4c1.9,1.1,3.8,1.9,5.8,2.4
	l-8.8,5.1c-3,1.7-6.4,2.6-9.8,2.6c-2.4,0-4.8-0.5-7-1.3L329.4,232.1z"/>
<path id="XMLID_978_" class="st29" d="M221.4,203.4l-10.5,6c-1.1,0.5-2.2,1-3.3,1.6l-77.5,44.5c-0.1,0.1-0.6,0.2-0.8,0.3l-13.4,7.4
	v15.4v88.9V383l13.4,7.4c0.1,0.1,0.5,0.2,0.6,0.3l77.6,44.5c1.1,0.6,2.2,1.1,3.4,1.6l10.6,6l34.4-19.6c1.1-0.4,2.1-0.9,3.2-1.5
	l53.3-31l0-0.2h0l0,0.2c0.1,0,0,0,0.1,0L326,383v-2V263.2L221.4,203.4z M132.9,261.9l12.2-7.2c-2.3,4.9-4,10.3-4,15.8v9.7l-12,7.1
	c-2.5,1.4-2,3.4-6,5.7v-14.4C123,271.8,127,265.4,132.9,261.9z M246.4,418c-3.2,0-6.3-0.8-9.2-2.5l-7.5-4.3l38-22.1
	c6-3.5,9.4-9.8,9.4-16.8v-12.2l36,20.1c-1.4,1.7-3,3.2-5,4.3L251,417.4C249.5,417.8,248,418,246.4,418z M163.8,244.2l35.5-20.3
	l6.7-3.7c3.7-2.1,8-3.3,12-3.7v42l-9.4-5.4c-3-1.7-6.3-2.6-9.6-2.6c-3.3,0-7.3,0.9-10.3,2.6L148,276.2v-5.7
	C148,259.7,154.4,249.6,163.8,244.2z M319,290.1c-4-1.8-4.8-3.3-7-4.5l-14-7.4v-7.7c0-5.6-0.5-11-2.9-16l13.1,7
	c6.1,3.5,10.7,10,10.7,17.1V290.1z M317.3,374.3l-39.4-22l2.3-1.8c11.6-6.7,17.8-19,17.8-32.3v-31.8l10.5,5.3
	c5.7,3.3,10.5,9.3,10.5,15.9v60C319,369.9,318.1,372.1,317.3,374.3z M291,274.2l-32.8-19.4c-3.9-2.3-7.9-3.4-12.2-3.4
	c-4.4,0-9,1.1-13,3.4l-9,5v-43.3c4,0.5,8.1,1.8,11.6,3.8l40.8,23.8c9.4,5.4,14.6,15.4,14.6,26.3V274.2z M260.9,293.9
	c3.5,2,9.1,5.7,9.1,9.6v39.1c0,3.9-5.5,7.6-9.1,9.6l-29.5,17.2c-3,1.7-6.1,2.6-9.4,2.6c-3.3,0-6.6-0.9-9.5-2.6l-30.3-17.2
	c-3.5-2-6.1-5.7-6.1-9.6v-39.1c0-3.9,2.6-7.6,6.2-9.6l33.8-19.3c1.8-1,4-1.6,6-1.6c2,0,3.9,0.5,5.7,1.6L260.9,293.9z M277,344.2
	v-40.1c0-6.9-3.4-13.3-9.4-16.8l-38.1-22.1l7.6-4.3c2.8-1.6,6-2.5,9.2-2.5c3.2,0,5.5,0.8,8.4,2.5l36.3,21.4v35.8
	C291,328.8,287,338.8,277,344.2z M192.2,259.2c1.9-1.1,4.3-1.7,6.5-1.7c2.1,0,4.4,0.5,6.3,1.7l10.6,6.1L181,285.6
	c-7.9,4.5-12,12.9-12,22v38.7l-4.5-1.9c-9.4-5.4-16.5-15.4-16.5-26.3v-33.8L192.2,259.2z M160.3,350.4l3.3,1.8L127,371.9v-67.8
	c0-4.4,1.9-8.5,5.7-10.7l8.3-5.1v29.8C141,331.4,148.7,343.7,160.3,350.4z M192.8,417.3l-59.3-34.2c-1.8-1.1-2.7-2.5-3.7-4.3
	l39.3-20.7v10.8c0,9.1,4.2,17.4,12,22l35,20.3l-10.7,6.1c-1.9,1.1-4.1,1.6-6.2,1.6C196.9,419,194.7,418.4,192.8,417.3z M184.5,384.8
	c-5.7-3.3-8.5-9.3-8.5-15.9v-10.6l27,15.9c5.8,3.3,11.9,5,18.3,5c6.4,0,12.4-1.7,18.1-5l30.6-17.9v16.1c0,4.4-2,8.5-5.8,10.7
	l-41.3,24.1L184.5,384.8z M204.6,425.1c1.4-0.4,2.8-1,4-1.7l14.1-8.1l11,6.4c1.9,1.1,3.8,1.9,5.8,2.4l-8.8,5.1
	c-3,1.7-6.4,2.6-9.8,2.6c-2.4,0-4.8-0.5-7-1.3L204.6,425.1z"/>
</svg>
