<?xml version="1.0" encoding="utf-8"?>
<!-- Generator: Adobe Illustrator 21.0.2, SVG Export Plug-In . SVG Version: 6.00 Build 0)  -->
<svg version="1.1" id="Layer_1" xmlns="http://www.w3.org/2000/svg" xmlns:xlink="http://www.w3.org/1999/xlink" x="0px" y="0px"
	 viewBox="0 0 411.1 323.8" style="enable-background:new 0 0 411.1 323.8;" xml:space="preserve">
<style type="text/css">
	.st0{fill:#3AAA35;}
	.st1{clip-path:url(#SVGID_2_);}
	.st2{fill:#FFFFFF;}
</style>
<g id="XMLID_1_">
	<polygon class="st0" points="203.9,44.6 137.1,83.2 137.1,234.9 203.9,273.5 139.4,310.8 8,234.9 8,83.2 139.4,7.3 	"/>
	<polygon class="st0" points="399.9,83.2 399.9,234.9 268.5,310.8 203.9,273.5 270.8,234.9 270.8,83.2 203.9,44.6 268.5,7.3 	"/>
</g>
<g>
	<g>
		<defs>
			<rect id="SVGID_1_" x="-170.5" y="-115.2" width="374.4" height="531.7"/>
		</defs>
		<clipPath id="SVGID_2_">
			<use xlink:href="#SVGID_1_"  style="overflow:visible;"/>
		</clipPath>
		<g id="XMLID_2_" class="st1">
			<polygon class="st2" points="203.9,44.6 137.1,83.2 137.1,234.9 203.9,273.5 139.4,310.8 8,234.9 8,83.2 139.4,7.3 			"/>
			<polygon class="st2" points="399.9,83.2 399.9,234.9 268.5,310.8 203.9,273.5 270.8,234.9 270.8,83.2 203.9,44.6 268.5,7.3 			
				"/>
		</g>
	</g>
</g>
</svg>
