<svg xmlns="http://www.w3.org/2000/svg" viewBox="0 0 37 37"><defs><style>.cls-1{fill:#f7f7f7;}</style></defs><title>Asset 39</title><g id="Layer_2" data-name="Layer 2"><g id="Layer_1-2" data-name="Layer 1"><path class="cls-1" d="M0,0V37H37V0ZM33.79,17.5a9,9,0,0,1-1.93,2.86C31.05,21.18,19.58,31.54,18.5,32,17.42,31.54,5.95,21.18,5.14,20.36A9,9,0,0,1,11.5,5a7.68,7.68,0,0,1,3.5.86,9.61,9.61,0,0,1,2.86,2.27c.23.26.44.53.64.82.2-.28.41-.56.64-.82A9.58,9.58,0,0,1,22,5.86,7.66,7.66,0,0,1,25.5,5a9,9,0,0,1,8.29,12.5Z"/></g></g></svg>