<svg xmlns="http://www.w3.org/2000/svg" viewBox="0 0 37 37"><defs><style>.cls-1{fill:#f7f7f7;}</style></defs><title>Asset 38</title><g id="Layer_2" data-name="Layer 2"><g id="Layer_1-2" data-name="Layer 1"><path class="cls-1" d="M0,0V37H37V0ZM30.5,31c0,2.48-7.85,3.13-12,3.13S6.5,33.5,6.5,31V29.33A4.7,4.7,0,0,1,9,25.2l4.65-2.54a1.38,1.38,0,0,0,.72-1.21V19.72a11,11,0,0,1-1.83-3.78,2.07,2.07,0,0,1-.78-1.62V12.24a2.08,2.08,0,0,1,.52-1.37V8.09a4.68,4.68,0,0,1,1.09-3.4c1.07-1.22,2.81-1.84,5.17-1.84s4.1.62,5.17,1.84a4.68,4.68,0,0,1,1.09,3.4v2.78a2.08,2.08,0,0,1,.52,1.37v2.09a2.07,2.07,0,0,1-1.21,1.89,11.94,11.94,0,0,1-1.54,3c-.13.18-.26.35-.38.5V21.5a1.37,1.37,0,0,0,.76,1.23l5,2.49a4.68,4.68,0,0,1,2.6,4.21Z"/></g></g></svg>